<svg xmlns="http://www.w3.org/2000/svg" viewBox="-14 -14 28 28">
  <defs>
    <linearGradient id="hx-ft" x1="0%" y1="0%" x2="0%" y2="100%">
      <stop offset="0%" stop-color="#00b3b3"/>
      <stop offset="100%" stop-color="#008080"/>
    </linearGradient>
    <linearGradient id="hx-fl" x1="0%" y1="0%" x2="100%" y2="100%">
      <stop offset="0%" stop-color="#006666"/>
      <stop offset="100%" stop-color="#004d4d"/>
    </linearGradient>
    <linearGradient id="hx-fr" x1="100%" y1="0%" x2="0%" y2="100%">
      <stop offset="0%" stop-color="#009999"/>
      <stop offset="100%" stop-color="#007a7a"/>
    </linearGradient>
    <linearGradient id="hx-fb" x1="0%" y1="0%" x2="0%" y2="100%">
      <stop offset="0%" stop-color="#005c5c"/>
      <stop offset="100%" stop-color="#003d3d"/>
    </linearGradient>
  </defs>
  <g transform="scale(0.28)">
    <polygon points="0,-48 42,-24 42,24 0,48 -42,24 -42,-24" fill="#003d3d"/>
    <polygon points="0,-48 42,-24 0,-12 -42,-24" fill="url(#hx-ft)"/>
    <polygon points="-42,-24 0,-12 0,24 -42,24" fill="url(#hx-fl)"/>
    <polygon points="42,-24 0,-12 0,24 42,24" fill="url(#hx-fr)"/>
    <polygon points="0,24 -42,24 0,48 42,24" fill="url(#hx-fb)"/>
    <rect x="-16" y="-12" width="32" height="20" rx="2" fill="#c0c0c0" stroke="#808080" stroke-width="1"/>
    <polygon points="-8,8 -4,8 -12,16" fill="#c0c0c0"/>
    <line x1="-10" y1="-5" x2="10" y2="-5" stroke="#000080" stroke-width="2" stroke-linecap="round"/>
    <line x1="-10" y1="1" x2="6" y2="1" stroke="#008080" stroke-width="2" stroke-linecap="round"/>
  </g>
</svg>
