<svg xmlns="http://www.w3.org/2000/svg" viewBox="-14 -14 28 28">
  <defs>
    <linearGradient id="hx-ft" x1="0%" y1="0%" x2="0%" y2="100%">
      <stop offset="0%" stop-color="#00b3b3"/>
      <stop offset="100%" stop-color="#008080"/>
    </linearGradient>
    <linearGradient id="hx-fl" x1="0%" y1="0%" x2="100%" y2="100%">
      <stop offset="0%" stop-color="#006666"/>
      <stop offset="100%" stop-color="#004d4d"/>
    </linearGradient>
    <linearGradient id="hx-fr" x1="100%" y1="0%" x2="0%" y2="100%">
      <stop offset="0%" stop-color="#009999"/>
      <stop offset="100%" stop-color="#007a7a"/>
    </linearGradient>
    <linearGradient id="hx-fb" x1="0%" y1="0%" x2="0%" y2="100%">
      <stop offset="0%" stop-color="#005c5c"/>
      <stop offset="100%" stop-color="#003d3d"/>
    </linearGradient>
  </defs>
  <g transform="scale(0.28)">
    <polygon points="0,-48 42,-24 42,24 0,48 -42,24 -42,-24" fill="#003d3d"/>
    <polygon points="0,-48 42,-24 0,-12 -42,-24" fill="url(#hx-ft)"/>
    <polygon points="-42,-24 0,-12 0,24 -42,24" fill="url(#hx-fl)"/>
    <polygon points="42,-24 0,-12 0,24 42,24" fill="url(#hx-fr)"/>
    <polygon points="0,24 -42,24 0,48 42,24" fill="url(#hx-fb)"/>
  </g>
</svg>
